# xmcd
#
# Track frame offsets: 
#        150
#        12768
#        24573
#        37666
#        49653
#        59281
#        71492
#        81357
#        92347
#        102891
#        112581
#        124065
#        136234
#        147083
#        156720
#        166989
#        178037
#        188609
#
# Disc length: 2636 seconds
#
# Revision: 0
# Processed by: cddbd v1.5.2PL0 Copyright (c) Steve Scherf et al.
# Submitted via: ExactAudioCopyFreeDBPlugin 1.0
#
DISCID=de0a4a12
DTITLE=Hank Snow - Milestones Of A Country Legend [CD 7)
DYEAR=1900
DGENRE=Country
TTITLE0=I´m Movibng In
TTITLE1=Tangled Mind
TTITLE2=Panamama
TTITLE3=My Blue Eyed Jane
TTITLE4=Under the Double Eagle
TTITLE5=Paving the Highway with Tears
TTITLE6=The Southern Cannonball
TTITLE7=Let Me Go, Lover
TTITLE8=When Mexican Joe Met Jole Blan
TTITLE9=Trouble, Trouble, Trouble
TTITLE10=There Wasn´t an Organ at Our Wedding
TTITLE11=The Boogie Woogie Flying Cloud
TTITLE12=I´m Glad I Got to See You
TTITLE13=Mainliner
TTITLE14=Silver Ball
TTITLE15=The Old Spinning Wheel
TTITLE16=What Do I Know Today
TTITLE17=Hula Rock
EXTD=
EXTT0=
EXTT1=
EXTT2=
EXTT3=
EXTT4=
EXTT5=
EXTT6=
EXTT7=
EXTT8=
EXTT9=
EXTT10=
EXTT11=
EXTT12=
EXTT13=
EXTT14=
EXTT15=
EXTT16=
EXTT17=
PLAYORDER=
